<svg width="442" height="506" viewBox="0 0 442 506" fill="none" xmlns="http://www.w3.org/2000/svg">
<path d="M230.819 188.951C232.572 188.439 234.394 188.362 236.173 188.726C237.952 189.089 239.647 189.885 241.159 191.059C242.671 192.232 243.969 193.76 244.98 195.547C245.992 197.334 246.699 199.347 247.062 201.467C247.426 203.586 247.439 205.773 247.101 207.898L221.315 397.433C221.072 399.577 220.481 401.644 219.573 403.511C218.665 405.377 217.457 407.008 216.018 408.305C214.578 409.601 212.933 410.537 211.181 411.049C209.428 411.561 207.606 411.638 205.827 411.274C204.048 410.911 202.353 410.115 200.841 408.941C199.329 407.768 198.031 406.24 197.02 404.453C196.008 402.666 195.301 400.653 194.938 398.533C194.574 396.414 194.561 394.227 194.899 392.102L220.684 202.566C220.927 200.422 221.519 198.355 222.427 196.489C223.335 194.623 224.543 192.992 225.982 191.695C227.422 190.399 229.067 189.463 230.819 188.951ZM275.399 224.482C278.982 224.223 282.48 225.721 285.127 228.602L350.368 299.654L350.679 299.992L350.368 300.33L281.504 375.332C278.855 378.213 275.356 379.709 271.772 379.448C268.191 379.187 264.87 377.196 262.525 373.96C260.183 370.727 258.993 366.502 259.201 362.216C259.409 357.93 260.999 353.901 263.645 351.023L310.512 299.991L267.268 252.894C264.624 250.016 263.036 245.989 262.829 241.704C262.622 237.419 263.811 233.196 266.154 229.965C268.499 226.731 271.819 224.742 275.399 224.482ZM160.503 224.646C163.162 221.858 166.632 220.44 170.169 220.736C173.704 221.033 176.974 223.015 179.29 226.21C181.605 229.403 182.795 233.564 182.623 237.8C182.451 242.035 180.929 246.037 178.361 248.938L178.355 248.944L131.487 299.991L174.731 347.074H174.732C176.757 349.275 178.177 352.167 178.817 355.36C179.458 358.553 179.291 361.91 178.337 364.986C177.383 368.063 175.684 370.726 173.449 372.614C171.213 374.504 168.546 375.525 165.803 375.524C162.595 375.53 159.514 374.135 157.104 371.629L156.873 371.383L91.6318 300.33L91.3213 299.992L91.6318 299.654L160.496 224.652L160.503 224.646Z" fill="black" stroke="black"/>
<path d="M221.08 0C229.866 3.21555e-05 238.293 3.99826 244.506 11.1152C250.719 18.2322 254.209 27.8853 254.209 37.9502C254.209 49.1327 249.902 59.101 243.166 66.0332V101.2H375.682C400.042 101.2 419.853 123.894 419.854 151.8V227.042C426.325 227.75 435.887 230.711 440.349 243.057C441.649 246.701 442.194 250.642 441.939 254.568V303.6C441.939 310.31 439.613 316.746 435.471 321.49C431.329 326.235 425.711 328.9 419.854 328.9V455.4C419.853 483.306 400.042 506 375.682 506H66.4785C42.1179 506 22.3068 483.306 22.3066 455.4V328.9H22.0859C16.2285 328.9 10.6106 326.235 6.46875 321.49C2.32684 316.746 0 310.31 0 303.6V253C0.00225817 246.607 2.11669 240.452 5.91895 235.772C9.72123 231.093 14.9298 228.237 20.4961 227.776L22.3066 227.624V151.8C22.3067 123.894 42.1178 101.2 66.4785 101.2H198.994V66.0332C192.258 59.101 187.951 49.1327 187.951 37.9502C187.951 27.8852 191.441 18.2322 197.654 11.1152C203.867 3.99824 212.294 0 221.08 0ZM66.4785 151.8V455.4H375.726L375.703 303.727L375.682 303.6V253L375.703 252.898L375.682 151.8H66.4785Z" fill="black"/>
<path d="M221.08 0C229.866 3.21555e-05 238.293 3.99826 244.506 11.1152C250.719 18.2322 254.209 27.8853 254.209 37.9502C254.209 49.1327 249.902 59.101 243.166 66.0332V101.2H375.682C400.042 101.2 419.853 123.894 419.854 151.8V227.042C426.325 227.75 435.887 230.711 440.349 243.057C441.649 246.701 442.194 250.642 441.939 254.568V303.6C441.939 310.31 439.613 316.746 435.471 321.49C431.329 326.235 425.711 328.9 419.854 328.9V455.4C419.853 483.306 400.042 506 375.682 506H66.4785C42.1179 506 22.3068 483.306 22.3066 455.4V328.9H22.0859C16.2285 328.9 10.6106 326.235 6.46875 321.49C2.32684 316.746 0 310.31 0 303.6V253C0.00225817 246.607 2.11669 240.452 5.91895 235.772C9.72123 231.093 14.9298 228.237 20.4961 227.776L22.3066 227.624V151.8C22.3067 123.894 42.1178 101.2 66.4785 101.2H198.994V66.0332C192.258 59.101 187.951 49.1327 187.951 37.9502C187.951 27.8852 191.441 18.2322 197.654 11.1152C203.867 3.99824 212.294 0 221.08 0ZM66.4785 151.8V455.4H375.726L375.703 303.727L375.682 303.6V253L375.703 252.898L375.682 151.8H66.4785Z" stroke="black"/>
</svg>
