<?xml version="1.0" standalone="no"?>
<!DOCTYPE svg PUBLIC "-//W3C//DTD SVG 20010904//EN"
 "http://www.w3.org/TR/2001/REC-SVG-20010904/DTD/svg10.dtd">
<svg version="1.0" xmlns="http://www.w3.org/2000/svg"
 width="500.000000pt" height="500.000000pt" viewBox="0 0 500.000000 500.000000"
 preserveAspectRatio="xMidYMid meet">
<g transform="translate(0.000000,500.000000) scale(0.100000,-0.100000)"
fill="#000000" stroke="none">
<path d="M2346 3998 c-207 -18 -469 -102 -639 -206 -262 -160 -483 -413 -606
-694 -59 -132 -93 -257 -116 -418 -68 -493 126 -980 534 -1337 168 -147 401
-262 646 -320 113 -26 133 -28 340 -27 203 0 229 2 334 27 63 15 167 48 230
73 476 188 837 627 937 1140 21 107 24 371 6 484 -58 358 -261 717 -526 932
-139 113 -260 187 -396 240 -152 61 -297 95 -454 108 -142 11 -135 11 -290 -2z
m10 -236 c39 -20 93 -72 125 -121 l16 -25 31 45 c61 90 141 129 263 129 58 0
77 -5 133 -35 37 -19 74 -35 84 -35 34 0 120 -51 161 -95 53 -58 65 -105 58
-232 -5 -85 -3 -105 10 -118 22 -22 38 -13 39 21 1 48 3 54 19 54 35 0 49 -95
18 -123 -32 -28 -66 -30 -102 -5 -56 39 -67 67 -53 136 16 78 15 125 -4 170
-24 58 -72 101 -134 119 -30 9 -82 30 -115 47 -51 26 -71 31 -130 31 -105 -1
-165 -41 -214 -145 -25 -52 -26 -65 -29 -245 l-3 -190 40 46 c22 26 56 54 76
63 19 9 35 20 35 24 0 4 -13 14 -29 24 -67 37 -120 153 -87 186 14 14 16 14
22 -4 37 -109 92 -158 176 -157 63 1 114 39 143 107 17 43 18 50 5 89 -21 59
-70 90 -133 84 -63 -6 -87 -28 -87 -83 0 -44 15 -68 50 -79 44 -14 80 36 45
65 -22 18 -18 40 7 40 82 0 73 -138 -12 -165 -30 -9 -83 11 -115 45 -38 40
-46 128 -16 176 20 32 89 64 139 64 83 0 160 -56 182 -134 28 -101 -19 -200
-122 -252 -26 -13 -56 -24 -66 -24 -28 0 -115 -47 -144 -77 -15 -16 -45 -63
-68 -105 -35 -65 -41 -84 -38 -125 l3 -48 45 84 c67 125 143 189 286 242 72
27 148 99 163 155 13 47 14 96 2 147 -8 32 -6 37 9 37 33 0 54 -38 58 -106 5
-73 -6 -107 -56 -177 -29 -40 -50 -55 -149 -104 -143 -70 -229 -144 -272 -237
-16 -33 -41 -88 -57 -121 l-29 -60 -3 -807 -2 -808 -30 0 -30 0 -2 808 -3 807
-59 120 c-77 158 -127 208 -289 289 -125 63 -158 93 -197 177 -34 75 -24 195
18 218 32 17 41 1 29 -60 -15 -86 -3 -143 43 -193 22 -23 54 -50 72 -58 18 -9
67 -32 108 -52 94 -44 182 -131 239 -236 l41 -75 0 64 c0 52 -5 72 -24 100
-13 20 -36 55 -50 79 -32 51 -94 98 -150 113 -160 43 -236 129 -223 255 8 73
42 117 113 144 88 32 152 22 203 -33 31 -34 40 -111 17 -155 -39 -75 -126 -96
-177 -41 -49 52 -30 129 32 129 34 0 38 -19 9 -45 -27 -24 -25 -39 6 -53 61
-28 112 63 69 124 -44 64 -145 47 -190 -30 -31 -53 -32 -90 -2 -139 33 -54 72
-77 132 -77 62 0 104 24 147 85 18 25 40 45 50 45 35 0 18 115 -26 179 -41 59
-98 86 -181 86 -60 0 -79 -5 -130 -32 -33 -18 -76 -35 -96 -38 -51 -8 -98 -42
-136 -99 -37 -54 -43 -112 -22 -204 16 -66 6 -96 -38 -127 -49 -33 -78 -32
-114 4 -32 33 -38 75 -15 107 20 27 50 7 54 -35 3 -27 7 -32 25 -29 21 3 22 7
22 133 1 138 10 177 54 223 36 36 102 74 165 94 33 10 66 23 73 29 52 44 214
50 289 11z m-626 -250 c0 -20 -13 -41 -45 -72 -47 -47 -75 -109 -75 -170 0
-81 51 -197 105 -236 25 -19 25 -20 12 -59 -15 -44 -36 -54 -61 -30 -22 22
-20 35 4 35 30 0 24 17 -14 42 -49 32 -82 88 -96 164 -14 71 -7 168 14 219 15
35 67 90 111 117 40 24 45 23 45 -10z m1596 -1 c92 -66 119 -124 119 -256 0
-78 -4 -97 -28 -146 -15 -31 -50 -78 -79 -104 -48 -46 -52 -47 -64 -30 -16 21
-19 55 -5 55 19 0 75 66 97 115 28 59 32 156 9 211 -8 20 -35 56 -60 80 -33
33 -45 53 -45 74 0 37 7 37 56 1z m-1808 -298 c5 -102 43 -208 103 -289 52
-69 90 -143 125 -242 15 -44 26 -58 56 -73 21 -11 38 -21 38 -24 0 -9 -59 -35
-79 -35 -28 0 -47 32 -76 126 -18 60 -44 110 -99 191 -73 111 -99 165 -111
236 -3 20 -10 37 -15 37 -25 0 -33 -138 -10 -179 16 -31 6 -51 -28 -51 -52 0
-106 -83 -106 -166 0 -35 8 -67 27 -105 23 -47 25 -56 12 -68 -13 -13 -19 -11
-45 14 -17 17 -37 51 -45 79 -31 104 -12 186 63 268 37 40 40 47 44 118 6 89
29 140 87 193 23 20 44 37 49 37 4 0 8 -30 10 -67z m2092 -81 c12 -30 20 -77
20 -110 0 -54 3 -61 36 -93 47 -44 84 -122 84 -176 0 -54 -25 -128 -57 -171
-25 -34 -26 -34 -45 -14 -20 19 -20 20 6 68 33 63 40 101 27 151 -17 62 -51
105 -91 116 -19 5 -38 12 -42 15 -4 4 0 32 8 62 11 43 12 66 3 107 -14 69 -25
74 -34 15 -9 -66 -36 -122 -106 -224 -33 -48 -69 -114 -80 -145 -30 -88 -80
-191 -95 -197 -14 -5 -74 39 -74 55 0 5 11 11 25 15 28 7 60 60 90 153 10 30
46 96 81 147 68 100 134 263 134 332 l0 36 45 -44 c28 -28 53 -65 65 -98z
m-475 78 c43 -38 91 -60 133 -60 47 0 55 -15 22 -45 -29 -26 -84 -15 -158 33
-34 22 -73 43 -88 46 -30 8 -27 26 7 43 27 14 55 9 84 -17z m-1177 8 c19 -19
14 -35 -14 -42 -15 -4 -56 -25 -92 -47 -36 -21 -74 -39 -83 -39 -35 0 -69 19
-69 40 0 17 7 20 41 20 46 0 70 11 117 51 34 30 79 38 100 17z m189 -125 c64
-30 149 -105 139 -121 -12 -19 -36 -14 -75 17 -88 69 -158 89 -235 67 -129
-38 -191 -162 -142 -281 31 -72 115 -143 210 -174 82 -27 137 -63 222 -148 84
-83 137 -172 152 -255 12 -62 2 -906 -10 -937 -10 -25 -11 -25 -18 -6 -5 11
-9 37 -9 58 -1 45 -10 47 -40 7 -27 -37 -96 -84 -110 -75 -23 13 -9 42 33 72
82 58 102 117 66 199 -37 86 -129 142 -267 164 -85 14 -138 47 -164 103 -37
82 -20 157 49 219 74 67 172 63 280 -11 66 -45 81 -60 117 -121 l26 -45 -4 90
c-5 96 -19 138 -79 222 -34 47 -115 105 -172 123 -37 12 -40 11 -68 -19 -16
-17 -38 -31 -49 -31 -56 0 -119 66 -119 125 0 61 61 119 137 131 35 5 54 1 96
-20 56 -27 95 -61 83 -73 -3 -4 -37 4 -76 16 -76 25 -112 23 -155 -10 -31 -25
-33 -61 -4 -90 27 -27 49 -21 74 19 18 29 24 32 55 26 93 -15 207 -96 258
-182 22 -38 28 -43 30 -26 2 11 -6 46 -18 76 -57 153 -205 301 -340 343 -48
15 -163 90 -196 128 -61 72 -79 172 -49 274 11 37 28 63 68 100 90 85 190 100
304 46z m915 16 c59 -15 133 -80 154 -136 27 -70 25 -184 -4 -244 -43 -89 -70
-108 -312 -223 -80 -38 -161 -118 -219 -214 -44 -73 -82 -184 -68 -198 2 -2
16 18 31 46 50 91 184 187 271 193 36 2 41 -1 54 -30 24 -54 71 -43 86 20 6
22 2 34 -15 52 -34 36 -70 40 -150 14 -39 -12 -73 -20 -75 -17 -12 12 10 40
50 63 88 52 198 25 239 -58 25 -52 15 -97 -30 -136 -46 -41 -90 -42 -128 -2
-28 29 -29 29 -73 16 -98 -30 -195 -138 -233 -262 -23 -76 -37 -173 -24 -173
5 0 21 22 36 49 36 63 95 116 172 152 99 47 178 36 243 -32 40 -42 53 -77 53
-138 0 -79 -61 -150 -132 -153 -45 -1 -107 45 -133 98 -36 76 20 150 92 123
51 -19 67 -63 34 -93 -23 -21 -41 -14 -41 15 0 14 -7 19 -25 19 -32 0 -34 -30
-4 -71 34 -48 104 -37 134 21 21 40 19 76 -6 117 -25 40 -53 53 -116 53 -62 0
-121 -30 -175 -88 -80 -85 -128 -196 -128 -294 0 -47 14 -49 36 -3 23 49 79
90 149 110 l59 18 22 -27 c13 -14 32 -26 43 -26 37 0 89 -32 108 -67 16 -30
16 -35 3 -43 -25 -16 -36 -12 -64 25 -74 97 -195 84 -282 -30 -54 -71 -52
-157 6 -220 26 -29 64 -95 54 -95 -16 0 -65 35 -102 72 -66 69 -73 114 -77
523 -3 337 -3 341 21 408 40 118 79 170 194 261 86 69 105 80 170 101 182 59
265 211 193 354 -22 46 -34 57 -80 78 -34 16 -73 25 -102 25 -58 0 -139 -33
-177 -73 -34 -35 -84 -41 -84 -9 0 27 114 110 182 132 53 18 96 17 170 -3z
m-1002 -114 c38 -20 50 -43 50 -101 0 -64 -30 -110 -80 -125 -49 -15 -85 -6
-121 31 -23 22 -29 38 -29 70 0 53 12 74 62 110 46 34 75 37 118 15z m1007
-21 c65 -49 73 -126 19 -180 -39 -39 -86 -45 -136 -19 -51 26 -79 104 -56 158
33 79 102 95 173 41z m-762 -83 c89 -40 106 -87 115 -305 8 -193 5 -216 -21
-216 -20 0 -20 1 -39 119 -10 61 -18 80 -48 113 -19 21 -56 49 -81 61 -85 41
-119 139 -70 201 38 48 81 56 144 27z m521 -15 c30 -30 34 -40 34 -85 0 -42
-5 -56 -30 -84 -16 -19 -45 -40 -62 -47 -48 -19 -96 -57 -113 -89 -8 -16 -18
-62 -23 -103 -10 -81 -25 -118 -46 -118 -12 0 -14 34 -12 188 3 208 12 253 60
307 66 74 138 85 192 31z m-1298 -8 c21 -21 13 -37 -25 -57 -74 -37 -97 -93
-41 -99 18 -2 37 6 61 27 43 38 65 39 73 4 10 -38 -28 -67 -113 -87 l-68 -16
-22 26 c-50 55 -17 149 67 192 51 26 52 26 68 10z m2011 -12 c15 -8 42 -31 60
-51 36 -41 43 -105 14 -137 -34 -37 -136 -16 -187 38 -29 32 -32 46 -12 63 11
9 23 4 56 -24 68 -57 130 -42 86 21 -8 11 -33 29 -55 39 -31 14 -41 24 -41 42
0 18 5 23 25 23 15 0 39 -7 54 -14z m-1439 -171 c0 -36 -47 -46 -72 -15 -20
25 -16 38 16 50 29 11 56 -6 56 -35z m877 19 c10 -27 -11 -49 -48 -49 -37 0
-51 24 -29 50 17 20 69 19 77 -1z m-150 -91 c2 -6 -24 -35 -59 -64 l-63 -52
-3 27 c-4 33 27 71 73 92 33 14 47 14 52 -3z m-1217 -25 c107 -54 116 -198 17
-258 -66 -41 -144 -16 -167 54 -25 76 54 146 102 89 10 -13 7 -20 -20 -42 -25
-21 -29 -29 -21 -43 14 -24 64 -23 89 2 22 22 27 78 10 111 -15 26 -62 49
-104 49 -72 0 -137 -94 -120 -173 19 -91 66 -126 225 -168 128 -33 161 -56
204 -143 44 -89 26 -172 -54 -250 -35 -34 -48 -40 -95 -44 -72 -6 -98 2 -142
40 -64 56 -83 142 -45 205 l19 31 -44 11 c-24 6 -68 22 -98 35 -64 29 -126
101 -146 169 -19 69 -9 163 24 230 27 57 27 57 51 39 20 -15 22 -20 10 -42 -7
-14 -18 -53 -25 -86 -16 -83 5 -162 59 -215 41 -42 144 -79 217 -79 119 0 203
-94 160 -178 -19 -38 -47 -54 -84 -50 -21 2 -28 9 -30 31 -3 23 1 28 27 33 34
7 45 27 31 54 -26 49 -81 52 -109 6 -52 -83 2 -185 96 -186 81 0 155 98 138
183 -18 88 -75 129 -225 162 -159 36 -215 99 -215 241 0 70 3 85 27 121 51 78
153 104 238 61z m661 -7 c31 -31 39 -71 14 -71 -22 0 -85 60 -85 81 0 29 37
24 71 -10z m1277 14 c54 -23 81 -53 97 -109 44 -148 -10 -265 -140 -305 -33
-10 -80 -22 -105 -26 -57 -9 -107 -35 -141 -72 -85 -91 -42 -247 71 -260 25
-3 57 0 72 6 29 11 68 75 68 110 0 31 -31 90 -51 96 -24 8 -65 -13 -78 -41 -9
-20 -7 -28 9 -44 11 -11 26 -20 34 -20 19 0 27 -25 13 -39 -19 -19 -64 -12
-94 13 -23 20 -28 32 -28 69 0 76 65 127 163 127 75 0 191 43 228 86 63 70 79
191 39 289 -15 34 -15 38 2 51 26 19 27 19 52 -33 35 -70 40 -180 12 -253 -36
-95 -128 -170 -229 -186 -50 -8 -60 -19 -39 -42 55 -61 15 -181 -75 -228 -39
-20 -114 -21 -160 -1 -44 18 -103 102 -113 160 -13 78 45 196 115 232 16 8 68
24 117 35 152 36 213 88 213 183 0 65 -21 110 -63 135 -63 40 -130 24 -162
-38 -20 -39 -19 -62 6 -94 15 -19 30 -26 54 -26 49 0 61 27 28 62 -30 31 -25
58 11 58 32 0 66 -44 66 -86 0 -52 -36 -86 -96 -91 -44 -4 -53 -1 -86 27 -85
71 -72 191 26 251 38 23 113 25 164 4z m-1592 -60 c22 -18 27 -12 -62 -67 -83
-52 -106 -149 -54 -232 32 -53 89 -79 159 -73 31 3 70 8 87 12 47 10 134 -38
182 -99 48 -62 9 -63 -73 0 -52 39 -65 44 -95 40 -164 -25 -217 -16 -283 52
-42 43 -71 134 -61 192 16 87 58 141 136 175 42 18 40 18 64 0z m1172 -9 c54
-28 102 -96 116 -163 11 -50 -19 -152 -57 -192 -61 -64 -156 -87 -247 -60 -51
15 -73 8 -147 -46 -35 -25 -65 -45 -69 -45 -3 0 -3 12 1 28 9 37 48 76 113
113 53 30 54 30 100 15 79 -28 143 -16 198 36 35 33 60 103 50 141 -11 45 -65
107 -114 130 -26 12 -49 23 -51 24 -2 1 -1 9 2 18 8 19 68 20 105 1z m-1422
-231 c28 -42 -15 -75 -51 -39 -15 15 -14 18 6 40 12 13 24 24 26 24 1 0 10
-11 19 -25z m1651 -11 c14 -38 -48 -58 -71 -22 -16 25 19 61 46 47 10 -6 22
-17 25 -25z m-1949 -264 c4 0 6 -30 4 -67 -3 -59 0 -75 25 -122 40 -76 110
-116 204 -116 61 0 72 3 121 38 62 42 64 43 72 22 3 -8 -11 -35 -31 -62 -45
-60 -55 -99 -39 -168 16 -66 39 -103 94 -149 52 -43 107 -61 182 -59 79 1 130
22 157 62 42 62 18 131 -45 131 -56 0 -71 -50 -22 -75 37 -19 38 -30 4 -52
-37 -24 -109 -22 -175 5 -81 33 -122 92 -127 183 -4 58 -1 69 20 93 23 27 24
27 40 9 15 -17 16 -23 3 -60 -24 -69 8 -140 76 -167 67 -27 79 -23 79 28 0 27
7 52 18 65 18 23 71 39 110 33 34 -5 90 -66 98 -107 10 -54 -3 -86 -56 -137
-59 -56 -107 -72 -205 -66 -87 6 -191 53 -236 107 -46 56 -81 139 -87 206 l-4
60 -57 1 c-105 1 -203 61 -247 151 -41 83 -40 235 2 219 9 -3 19 -6 22 -6z
m2238 -26 c9 -49 -2 -148 -21 -184 -48 -93 -156 -160 -257 -160 l-58 0 0 -43
c0 -96 -62 -212 -140 -266 -25 -17 -72 -40 -104 -52 -53 -18 -67 -19 -125 -9
-130 22 -201 76 -208 157 -9 92 42 153 127 153 48 0 90 -47 90 -99 0 -36 3
-41 23 -40 42 1 101 42 126 88 22 40 23 48 12 93 -12 53 -9 68 14 68 21 0 43
-38 51 -87 17 -105 -108 -233 -228 -233 -79 0 -134 60 -69 75 22 5 28 11 24
23 -27 77 -113 64 -113 -17 0 -115 150 -167 293 -102 107 48 157 129 157 253
0 52 -4 62 -35 97 -19 21 -35 48 -35 60 0 21 3 20 46 -13 78 -60 179 -61 274
-3 71 43 94 88 97 187 1 61 5 75 20 81 30 12 32 11 39 -27z m-828 -185 c2 -21
-4 -31 -30 -47 -83 -50 -107 -27 -41 40 42 43 67 45 71 7z m-799 -178 c11 -7
11 -15 2 -44 -13 -40 -27 -49 -53 -35 -23 11 -23 23 3 59 22 31 27 33 48 20z"/>
<path d="M2441 3425 c-22 -57 -36 -79 -74 -116 l-38 -36 35 -22 c19 -12 51
-41 70 -64 l36 -42 -1 125 c-1 69 -5 139 -9 155 l-7 30 -12 -30z"/>
<path d="M1980 1951 c-81 -80 -29 -201 86 -201 24 0 44 -4 44 -10 0 -5 19 -14
42 -21 90 -24 166 -77 198 -138 28 -55 36 -17 16 81 -21 107 -49 161 -122 235
-72 73 -94 83 -175 83 -53 0 -64 -3 -89 -29z m161 -53 c17 -17 27 -38 24 -45
-3 -8 -5 -19 -5 -24 0 -17 -25 -9 -38 11 -17 28 -50 25 -62 -5 -12 -32 -35
-32 -55 -1 -19 28 -10 55 27 80 36 26 76 20 109 -16z m147 -157 c-3 -22 -4
-22 -50 9 -48 32 -59 55 -36 78 18 18 91 -56 86 -87z"/>
<path d="M1970 2930 c-44 -44 -33 -110 19 -110 57 0 85 82 39 114 -29 20 -34
20 -58 -4z"/>
<path d="M2966 2935 c-41 -42 -23 -108 32 -113 62 -6 82 42 41 99 -22 32 -49
37 -73 14z"/>
<path d="M2212 2828 c-21 -21 -14 -65 14 -87 15 -12 32 -21 38 -21 5 0 32 -21
58 -47 46 -45 48 -46 48 -22 0 46 -31 134 -58 162 -28 29 -78 37 -100 15z"/>
<path d="M2703 2829 c-33 -21 -57 -69 -68 -135 -4 -21 -9 -48 -12 -59 -3 -14
7 -7 34 21 21 23 57 51 80 62 41 21 73 55 73 77 0 18 -39 55 -58 55 -9 0 -31
-9 -49 -21z"/>
</g>
</svg>
